# Blender v2.77 (sub 0) OBJ File: 'table.blend'
# www.blender.org
mtllib table.mtl
o Table
v 1.000000 0.000000 -0.000001
v 1.000000 0.820987 0.199699
v 1.000000 0.000000 0.199699
v 0.800300 0.000000 0.199699
v 0.800300 -0.000002 -0.000001
v 0.199700 -0.000002 0.800299
v 0.199700 -0.000002 0.999999
v 0.000000 -0.000002 0.999999
v 0.000000 -0.000002 0.800299
v 1.000000 -0.000002 0.800299
v 1.000000 0.820987 0.800299
v 1.000000 -0.000002 0.999999
v 0.800300 0.820987 0.999999
v 0.800300 -0.000002 0.999999
v 0.000000 -0.000002 0.199699
v 0.000000 0.820987 0.199699
v 0.000000 -0.000002 -0.000001
v 0.800300 0.820987 -0.000001
v 1.000000 0.999998 -0.000001
v 0.000000 0.999998 -0.000001
v 0.199700 0.820987 -0.000001
v 0.000000 0.820987 0.800299
v 0.199700 -0.000002 0.199699
v 0.199700 0.820987 0.199699
v 0.800300 0.820987 0.199699
v 0.000000 0.999998 0.999999
v 0.199700 0.820987 0.800299
v 0.199700 -0.000002 -0.000001
v 0.199700 0.820987 0.999999
v 1.000000 0.999998 0.999999
v 0.800300 -0.000002 0.800299
v 0.800300 0.820987 0.800299
v 1.000000 0.999998 -0.000001
v 0.000000 0.999998 -0.000001
vt 0.7332 0.8807
vt 0.7998 0.6070
vt 0.7998 0.8807
vt 0.4665 0.7332
vt 0.5330 0.6667
vt 0.5330 0.7332
vt 0.9329 0.8807
vt 0.8664 0.6070
vt 0.9329 0.6070
vt 0.2668 0.6070
vt 0.3333 0.6667
vt 0.0000 0.6667
vt 0.8664 0.8807
vt 0.7998 0.6070
vt 0.8664 0.6070
vt 0.8664 0.3333
vt 0.7998 0.6070
vt 0.7998 0.3333
vt 0.7998 0.3333
vt 0.7332 0.6070
vt 0.7332 0.3333
vt 0.3930 0.2668
vt 0.3333 0.3333
vt 0.3333 0.0000
vt 0.3999 0.6667
vt 0.4665 0.7332
vt 0.3999 0.7332
vt 0.6667 0.3333
vt 0.7332 0.6070
vt 0.6667 0.6070
vt 0.3999 0.3930
vt 0.3333 0.3333
vt 0.6667 0.3333
vt 0.3333 0.6667
vt 0.3999 0.7332
vt 0.3333 0.7332
vt 0.0000 0.3333
vt 0.0000 0.0000
vt 0.0597 0.2668
vt 0.9329 0.3333
vt 0.8664 0.6070
vt 0.8664 0.3333
vt 0.5996 0.7332
vt 0.5330 0.6667
vt 0.5996 0.6667
vt 0.7332 0.8807
vt 0.6667 0.6070
vt 0.7332 0.6070
vt 0.9334 0.2668
vt 0.7332 0.0666
vt 0.9334 0.0666
vt 0.0000 0.6667
vt 0.3333 1.0000
vt 0.0000 1.0000
vt 0.7332 0.6070
vt 0.4665 0.6667
vt 0.8664 0.8807
vt 0.0000 0.3333
vt 0.0666 0.3333
vt 0.0666 0.6070
vt 0.2668 0.3333
vt 0.3333 0.3333
vt 0.7998 0.8807
vt 0.8664 0.6070
vt 0.7998 0.6070
vt 0.6667 0.2668
vt 0.6667 0.3333
vt 0.6667 0.0000
vt 0.3930 0.0666
vt 0.6667 0.0666
vt 0.4665 0.6667
vt 0.7332 0.3333
vt 0.3999 0.6667
vt 0.3333 0.6667
vt 0.6667 0.6667
vt 0.6001 0.3930
vt 0.6001 0.6667
vt 0.3999 0.6667
vt 0.3333 0.0000
vt 0.0597 0.0666
vt 0.3333 0.0666
vt 0.3333 0.2668
vt 0.3333 0.3333
vt 0.9329 0.6070
vt 0.5330 0.7332
vt 0.6667 0.8807
vt 0.9334 0.3333
vt 0.7332 0.3333
vt 0.7332 0.2668
vt 0.6667 0.2668
vt 0.6667 0.0666
vt 1.0000 0.0666
vt 1.0000 0.2668
vt 0.7332 0.0000
vt 0.9334 0.0000
vt 0.3333 0.6667
vn 0.0000 0.0000 1.0000
vn 0.0000 -1.0000 0.0000
vn 0.0000 0.0000 -1.0000
vn 1.0000 0.0000 0.0000
vn -1.0000 0.0000 0.0000
vn 0.0000 1.0000 0.0000
usemtl None
s off
f 3/1/1 25/2/1 4/3/1
f 17/4/2 23/5/2 15/6/2
f 10/7/3 32/8/3 11/9/3
f 21/10/3 20/11/3 19/12/3
f 15/13/1 24/14/1 16/15/1
f 24/16/4 28/17/4 21/18/4
f 32/19/5 14/20/5 13/21/5
f 22/22/5 26/23/5 20/24/5
f 9/25/2 7/26/2 8/27/2
f 25/28/5 5/29/5 4/30/5
f 13/31/1 30/32/1 26/33/1
f 1/34/2 4/35/2 5/36/2
f 19/37/4 30/38/4 2/39/4
f 9/40/3 27/41/3 6/42/3
f 10/43/2 14/44/2 31/45/2
f 27/46/4 7/47/4 6/48/4
f 27/49/2 25/50/2 32/51/2
f 26/52/6 19/53/6 20/54/6
f 3/1/1 2/55/1 25/2/1
f 17/4/2 28/56/2 23/5/2
f 10/7/3 31/57/3 32/8/3
f 1/58/3 5/59/3 18/60/3
f 21/10/3 28/61/3 17/62/3
f 19/12/3 1/58/3 18/60/3
f 21/10/3 17/62/3 20/11/3
f 19/12/3 18/60/3 21/10/3
f 15/13/1 23/63/1 24/14/1
f 24/16/4 23/64/4 28/17/4
f 32/19/5 31/65/5 14/20/5
f 22/22/5 9/66/5 8/67/5
f 20/24/5 17/68/5 16/69/5
f 17/68/5 15/70/5 16/69/5
f 22/22/5 8/67/5 26/23/5
f 20/24/5 16/69/5 22/22/5
f 9/25/2 6/71/2 7/26/2
f 25/28/5 18/72/5 5/29/5
f 13/31/1 14/73/1 12/74/1
f 26/33/1 8/75/1 29/76/1
f 8/75/1 7/77/1 29/76/1
f 13/31/1 12/74/1 30/32/1
f 26/33/1 29/76/1 13/31/1
f 1/34/2 3/78/2 4/35/2
f 30/38/4 12/79/4 11/80/4
f 12/79/4 10/81/4 11/80/4
f 3/82/4 1/83/4 2/39/4
f 30/38/4 11/80/4 2/39/4
f 2/39/4 1/83/4 19/37/4
f 9/40/3 22/84/3 27/41/3
f 10/43/2 12/85/2 14/44/2
f 27/46/4 29/86/4 7/47/4
f 27/49/2 22/87/2 16/88/2
f 24/89/2 21/90/2 18/91/2
f 27/49/2 16/88/2 24/89/2
f 13/92/2 29/93/2 27/49/2
f 2/94/2 11/95/2 32/51/2
f 32/51/2 13/92/2 27/49/2
f 27/49/2 24/89/2 25/50/2
f 25/50/2 2/94/2 32/51/2
f 24/89/2 18/91/2 25/50/2
f 26/52/6 30/96/6 19/53/6
l 33 34
